<svg xmlns="http://www.w3.org/2000/svg" width="180" height="180" fill="none" viewBox="0 0 180 180"><mask id="mask0" width="180" height="180" x="0" y="0" mask-type="alpha" maskUnits="userSpaceOnUse"><path fill="#C4C4C4" d="M180 90C180 139.706 139.706 180 90 180C40.2944 180 0 139.706 0 90C0 40.2944 40.2944 0 90 0C139.706 0 180 40.2944 180 90Z"/></mask><g mask="url(#mask0)"><path fill="#3AA0FF" d="M0 0H89.8213C139.625 0 179.998 40.3736 179.998 90.1769V180H0V0Z"/><mask id="mask1" width="180" height="180" x="0" y="0" mask-type="alpha" maskUnits="userSpaceOnUse"><path fill="#C4C4C4" d="M0 0H89.8213C139.625 0 179.998 40.3736 179.998 90.1769V180H0V0Z"/></mask><g mask="url(#mask1)"><path fill="#2888FF" d="M-97.3224 277.21L218.678 -38.7931L358.935 101.465L42.934 417.468L-97.3224 277.21Z"/></g><path fill="#0E74FF" d="M63.2759 116.724V0H0V116.724V180H63.2759H179.998V116.724H63.2759Z"/><mask id="mask2" width="180" height="180" x="0" y="0" mask-type="alpha" maskUnits="userSpaceOnUse"><path fill="#000" d="M63.2759 116.724V0H0V116.724V180H63.2759H179.998V116.724H63.2759Z"/></mask><g mask="url(#mask2)"><path fill="#0540FF" d="M-77.562 257.039L238.438 -58.9644L378.695 81.2934L62.6944 397.297L-77.562 257.039Z"/></g><mask id="mask3" width="90" height="91" x="90" y="0" mask-type="alpha" maskUnits="userSpaceOnUse"><path fill="#AAA4A4" d="M90.0007 0.000366211C139.706 0.000366211 180 40.2952 180 90.0004H90.0007V0.000366211Z"/></mask><g mask="url(#mask3)"><path fill="#B4DBFF" d="M125.584 -44.9172H224.893V54.3931H125.584V-44.9172Z"/></g></g></svg>